<svg id="visual" viewBox="0 0 960 300" width="960" height="300" xmlns="http://www.w3.org/2000/svg" xmlns:xlink="http://www.w3.org/1999/xlink" version="1.1"><rect x="0" y="0" width="960" height="300" fill="#FFE0CB"></rect><path d="M0 165L20 175.5C40 186 80 207 120 212.3C160 217.7 200 207.3 240 206.8C280 206.3 320 215.7 360 213.3C400 211 440 197 480 197.8C520 198.7 560 214.3 600 209.3C640 204.3 680 178.7 720 177.5C760 176.3 800 199.7 840 203.8C880 208 920 193 940 185.5L960 178L960 0L940 0C920 0 880 0 840 0C800 0 760 0 720 0C680 0 640 0 600 0C560 0 520 0 480 0C440 0 400 0 360 0C320 0 280 0 240 0C200 0 160 0 120 0C80 0 40 0 20 0L0 0Z" fill="#ccb4a3"></path><path d="M0 174L20 174.2C40 174.3 80 174.7 120 165C160 155.3 200 135.7 240 132.8C280 130 320 144 360 150.5C400 157 440 156 480 157.5C520 159 560 163 600 165.2C640 167.3 680 167.7 720 167C760 166.3 800 164.7 840 156.5C880 148.3 920 133.7 940 126.3L960 119L960 0L940 0C920 0 880 0 840 0C800 0 760 0 720 0C680 0 640 0 600 0C560 0 520 0 480 0C440 0 400 0 360 0C320 0 280 0 240 0C200 0 160 0 120 0C80 0 40 0 20 0L0 0Z" fill="#b39480"></path><path d="M0 112L20 111.8C40 111.7 80 111.3 120 107.5C160 103.7 200 96.3 240 97.2C280 98 320 107 360 113.3C400 119.7 440 123.3 480 122.5C520 121.7 560 116.3 600 109.2C640 102 680 93 720 92.8C760 92.7 800 101.3 840 101.7C880 102 920 94 940 90L960 86L960 0L940 0C920 0 880 0 840 0C800 0 760 0 720 0C680 0 640 0 600 0C560 0 520 0 480 0C440 0 400 0 360 0C320 0 280 0 240 0C200 0 160 0 120 0C80 0 40 0 20 0L0 0Z" fill="#99765f"></path><path d="M0 56L20 60.3C40 64.7 80 73.3 120 76.3C160 79.3 200 76.7 240 69.2C280 61.7 320 49.3 360 49.5C400 49.7 440 62.3 480 62.5C520 62.7 560 50.3 600 51.2C640 52 680 66 720 71C760 76 800 72 840 66.3C880 60.7 920 53.3 940 49.7L960 46L960 0L940 0C920 0 880 0 840 0C800 0 760 0 720 0C680 0 640 0 600 0C560 0 520 0 480 0C440 0 400 0 360 0C320 0 280 0 240 0C200 0 160 0 120 0C80 0 40 0 20 0L0 0Z" fill="#805940"></path></svg>